<svg width="485" height="190" viewBox="0 0 485 190" fill="none" xmlns="http://www.w3.org/2000/svg">
<path d="M474.485 0.86315L236.471 2.60781C234.616 2.62169 232.802 3.1582 231.238 4.1558C229.674 5.1534 228.423 6.57168 227.628 8.24796L150.867 165.63L0.239258 165.773C0.239258 165.773 -3.12031 187.837 24.9815 189.196L139.553 188.83L139.22 189.496L401.307 188.58L483.474 14.9369C484.187 13.4283 484.505 11.7635 484.399 10.0983C484.293 8.43322 483.767 6.82221 482.868 5.41609C481.97 4.00996 480.73 2.8547 479.264 2.05843C477.797 1.26215 476.153 0.850898 474.485 0.86315Z" fill="#4716BA"/>
</svg>
